<svg id="Layer_1" enable-background="new 0 0 512 512" height="512" viewBox="0 0 512 512" width="512" xmlns="http://www.w3.org/2000/svg"><g><path d="m61.673 395.971c-34.508-34.504-34.508-90.449 0-124.953l177.67-177.646c34.502-34.497 90.437-34.497 124.939 0 34.508 34.503 34.508 90.449 0 124.953l-177.67 177.646c-34.502 34.498-90.437 34.498-124.939 0z" fill="#ae5121"/><path d="m158.265 395.971c-34.508-34.504-34.508-90.449 0-124.953l177.67-177.646c34.502-34.497 90.437-34.497 124.939 0 34.508 34.503 34.508 90.449 0 124.953l-177.67 177.646c-34.502 34.498-90.437 34.498-124.939 0z" fill="#ca6633"/><path d="m460.882 93.381c-21.2-21.197-50.489-29.348-77.93-24.498 17.223 3.044 33.719 11.195 47.025 24.498 34.505 34.501 34.505 90.437 0 124.937l-177.67 177.646c-13.305 13.304-29.802 21.455-47.024 24.498 27.441 4.85 56.73-3.301 77.93-24.498l177.67-177.646c34.504-34.5 34.504-90.437-.001-124.937z" fill="#ae5121"/><g><g><g><path d="m402.311 190.99-39.048-39.043c-8.088-8.087-8.088-21.199 0-29.286 8.086-8.085 21.196-8.085 29.283 0l39.048 39.043c8.088 8.087 8.088 21.199 0 29.286-8.087 8.085-21.197 8.085-29.283 0z" fill="#ea9f54"/></g><g><path d="m343.738 249.554-39.048-39.043c-8.088-8.087-8.088-21.199 0-29.286 8.086-8.085 21.196-8.085 29.283 0l39.048 39.043c8.088 8.087 8.088 21.199 0 29.286-8.086 8.086-21.196 8.086-29.283 0z" fill="#ea9f54"/></g><g><path d="m285.166 308.119-39.048-39.043c-8.088-8.087-8.088-21.199 0-29.286 8.086-8.085 21.196-8.085 29.283 0l39.048 39.043c8.088 8.087 8.088 21.199 0 29.286-8.087 8.085-21.197 8.085-29.283 0z" fill="#ea9f54"/></g><g><path d="m226.594 366.683-39.048-39.043c-8.088-8.087-8.088-21.199 0-29.286 8.086-8.085 21.196-8.085 29.283 0l39.048 39.043c8.088 8.087 8.088 21.199 0 29.286-8.087 8.086-21.197 8.086-29.283 0z" fill="#ea9f54"/></g></g></g><path d="m424.597 444.5h-337.194c-33.763 0-61.133-27.37-61.133-61.133v-86.82h459.46v86.82c0 33.763-27.37 61.133-61.133 61.133z" fill="#ea9f54"/><path d="m454.825 296.547v86.824c0 33.761-27.372 61.129-61.137 61.129h30.905c33.765 0 61.137-27.368 61.137-61.129v-86.824z" fill="#d78b3e"/><path d="m512 299.262c0 4.27-1.73 8.13-4.53 10.93-2.79 2.79-6.65 4.52-10.92 4.52h-481.1c-8.53 0-15.45-6.91-15.45-15.45 0-4.26 1.73-8.13 4.53-10.92 2.79-2.8 6.65-4.53 10.92-4.53h481.1c8.53 0 15.45 6.92 15.45 15.45z" fill="#d78b3e"/><path d="m496.547 283.814h-30.905c8.534 0 15.453 6.917 15.453 15.451 0 8.533-6.919 15.451-15.453 15.451h30.905c8.534 0 15.453-6.918 15.453-15.451 0-8.534-6.919-15.451-15.453-15.451z" fill="#bd742b"/><g><g fill="#bd742b"><path d="m72.21 283.812-9.15 30.9h-15.65l9.16-30.9z"/><path d="m121.26 283.812-9.16 30.9h-15.64l9.15-30.9z"/><path d="m170.3 283.812-9.15 30.9h-15.64l9.15-30.9z"/><path d="m219.35 283.812-9.15 30.9h-15.64l9.15-30.9z"/><path d="m268.4 283.812-9.16 30.9h-15.64l9.16-30.9z"/><path d="m317.44 283.812-9.15 30.9h-15.64l9.15-30.9z"/><path d="m366.49 283.812-9.15 30.9h-15.64l9.15-30.9z"/><path d="m415.54 283.812-9.15 30.9h-15.65l9.16-30.9z"/><path d="m464.59 283.812-9.16 30.9h-15.64l9.15-30.9z"/></g></g><path d="m488.823 379.607h-465.646c-8.533 0-15.451-6.917-15.451-15.451 0-8.533 6.917-15.451 15.451-15.451h465.646c8.533 0 15.451 6.917 15.451 15.451 0 8.534-6.918 15.451-15.451 15.451z" fill="#ca6633"/><path d="m488.821 348.706h-30.905c8.534 0 15.453 6.917 15.453 15.451 0 8.533-6.918 15.451-15.453 15.451h30.905c8.534 0 15.453-6.918 15.453-15.451s-6.919-15.451-15.453-15.451z" fill="#ae5121"/></g></svg>